# xmcd
#
# Track frame offsets:
#	150
#	17390
#	38652
#	56534
#	72819
#	90374
#	101848
#	111087
#	126539
#	139957
#	156741
#	171064
#	183555
#	198037
#	212227
#	227922
#	241164
#	255775
#	271135
#
# Disc length: 3794 seconds
#
# Revision: 1
# Processed by: cddbd v1.5.2PL0 Copyright (c) Steve Scherf et al.
# Submitted via: audiograbber 1.82.02
#
DISCID=040ed013
DTITLE=Various Artist - Country Radio - June 2013
DYEAR=2013
DGENRE=Country
TTITLE0=Luke Bryan - Crash My Party
TTITLE1=Blake Shelton (Ft. Pistol Annies and Friends) - Boys 'Round Here (PO Clea
TTITLE1=n Edit)
TTITLE2=Carrie Underwood - See You Again (Radio Edit)
TTITLE3=Little Big Town - Your Side Of The Bed
TTITLE4=Hunter Hayes - I Want Crazy
TTITLE5=Chris Young - I Can Take It From There (Acoustic Ver)
TTITLE6=Lennon and Maisy - Ho Hey
TTITLE7=Chris Cagle - Dance Baby Dance
TTITLE8=Justin Moore - Point At You
TTITLE9=Scotty McCreery - See You Tonight
TTITLE10=Kix Brooks - Complete 360
TTITLE11=Eric Paslay - Friday Night
TTITLE12=Joanna Smith - Girls Are Crazy (Single Edit)
TTITLE13=Hayden Panttiere - Hypnotizing
TTITLE14=Jared Ashley - Last Train To Memphis (Radio Edit)
TTITLE15=Morgan Frazier - Yellow Brick Road
TTITLE16=Rachel Holder - Five Days
TTITLE17=Florida Georgia Line (Ft. Nelly) - Cruise (Rmx)
TTITLE18=Wynonna Judd - Something You Can't Live Without
EXTD=
EXTT0=
EXTT1=
EXTT2=
EXTT3=
EXTT4=
EXTT5=
EXTT6=
EXTT7=
EXTT8=
EXTT9=
EXTT10=
EXTT11=
EXTT12=
EXTT13=
EXTT14=
EXTT15=
EXTT16=
EXTT17=
EXTT18=
PLAYORDER=
